<?xml version="1.0" encoding="utf-8"?>
<!-- Generator: Adobe Illustrator 22.1.0, SVG Export Plug-In . SVG Version: 6.00 Build 0)  -->
<svg version="1.1" id="Layer_1" xmlns="http://www.w3.org/2000/svg" xmlns:xlink="http://www.w3.org/1999/xlink" x="0px" y="0px"
	 viewBox="0 0 275 124.7" style="enable-background:new 0 0 275 124.7;" xml:space="preserve">
<g>
	<path d="M84.5,89.3c0,7.9,3.3,13.9,9.9,17.9l-20.5,15.2l-0.1-0.1h-0.1c-9.5-7.2-14.3-16.3-14.3-27.3V32.2c0-4-2.7-7.5-7.9-10.5
		L38,31.6v57.8c0,7.9,3.3,13.9,9.9,17.9l-20.5,15.2l-0.1-0.1h-0.1c-9.6-7.2-14.4-16.3-14.4-27.3V35.7c0-5.3-1.6-9.8-4.9-13.6
		c-1.6-2-3.3-3.4-4.9-4.3L23.3,2.6h0.1l0.4,0.3l0.5,0.3l0.8,0.4c0.6,0.4,1.3,0.9,2.1,1.3c0.8,0.6,1.6,1.3,2.4,2
		c2,1.6,3.6,3.5,4.8,5.6c1.6,2.5,2.7,5.2,3.2,8L62.5,2.1c10.4,4,17.2,10.5,20.4,19.4l26-19.3c8.1,3.1,14,7.7,17.7,13.7
		c3,4.8,4.4,10.3,4.4,16.5v56.9c0,7.9,3.3,13.9,10,17.9l-20.5,15.2l-0.1-0.1h-0.2c-9.6-7.2-14.4-16.3-14.4-27.3V32.2
		c0-4-2.7-7.5-7.9-10.5l-13.3,9.9V89.3z"/>
	<path d="M257.2,2.4l0.1,0.1h0.3l0.3,0.1l0.7,0.4l0.9,0.5c0.7,0.5,1.5,1.1,2.4,1.6c0.9,0.7,1.9,1.5,2.7,2.4c2.3,2.1,3.9,4.3,5.2,6.8
		c1.5,3.1,2.4,6.3,2.4,9.9c0,2.7,0,24.1-0.1,64.3l-45.4,33.8c-9.5-4.2-16.8-10.5-21.9-18.9l-25.3,18.9c-7.7-3.5-14.2-8.6-19.3-14.9
		c-4.7-6.1-7.1-11.8-7.1-17.2V33c0-2.3-0.5-4.3-1.5-6.4c-0.8-1.6-2-3.3-3.5-4.8c-1.6-1.8-3.3-3.1-4.9-4.1l20.5-15.2
		c5.3,3.1,9.3,8.3,12.1,16c1.3,3.8,2.3,7.2,2.7,10.4l-0.1,61.8c0,3.9,2.9,9.9,8.8,14.1l13.3-9.5V33.1c0-4-1.6-7.7-4.9-11.2
		c-1.8-1.8-3.5-3.1-5.2-4.1l20.7-15.2c5.3,3.1,9.3,8.3,12.1,16c1.4,3.8,2.4,7.2,2.7,10.4v61.8c0,3.9,2,6.8,8.4,12.8l12.8-9.6
		l0.1-58.3c0-2.9-0.5-5.6-1.5-8c-0.8-2.1-2-3.9-3.5-5.6c-1.6-2-3.3-3.4-4.9-4.3L257.2,2.4z"/>
</g>
</svg>
